<?xml version="1.0" encoding="utf-8"?>
<!-- Generator: Adobe Illustrator 16.0.0, SVG Export Plug-In . SVG Version: 6.00 Build 0)  -->
<!DOCTYPE svg PUBLIC "-//W3C//DTD SVG 1.1//EN" "http://www.w3.org/Graphics/SVG/1.1/DTD/svg11.dtd">
<svg version="1.1" id="Layer_1" xmlns:author="http://www.sothink.com"
	 xmlns="http://www.w3.org/2000/svg" xmlns:xlink="http://www.w3.org/1999/xlink" x="0px" y="0px" width="90px" height="86px"
	 viewBox="0 0 90 86" enable-background="new 0 0 90 86" xml:space="preserve">
<linearGradient id="SVGID_1_" gradientUnits="userSpaceOnUse" x1="59.167" y1="42.1748" x2="45.5005" y2="36.3415">
	<stop  offset="0" style="stop-color:#FFFFFF"/>
	<stop  offset="0.2196" style="stop-color:#424242"/>
	<stop  offset="1" style="stop-color:#000000"/>
</linearGradient>
<path fill="url(#SVGID_1_)" d="M48.891,34.6c0.529,0.634,1.342,1.367,2.439,2.2l2.666,1.95l2.666,1.65l2.326,1.9
	c-2.912,0.833-6.277,1-10.098,0.5c-3.518-0.5-6.715-1.467-9.589-2.9c-0.983-0.5-1.929-1.283-2.837-2.35
	c-0.907-1.133-1.456-2.15-1.646-3.05c-0.377-1.7-0.151-3.133,0.681-4.3c0.87-1.267,2.25-1.9,4.142-1.9
	c1.967-0.033,3.782,0.667,5.448,2.1l1.984,2.05L48.891,34.6"/>
<linearGradient id="SVGID_2_" gradientUnits="userSpaceOnUse" x1="65.3896" y1="42.2695" x2="76.0569" y2="34.1028">
	<stop  offset="0" style="stop-color:#FFFFFF"/>
	<stop  offset="0.2196" style="stop-color:#424242"/>
	<stop  offset="1" style="stop-color:#000000"/>
</linearGradient>
<path fill="url(#SVGID_2_)" d="M76.918,28.95c1.436,0.467,2.383,1.55,2.836,3.25c0.492,1.867,0.246,3.467-0.736,4.8
	c-0.719,0.966-1.703,1.933-2.951,2.9c-1.324,1.033-2.553,1.7-3.688,2c-2.988,0.767-5.221,0.9-6.695,0.4l3.461-3.5
	c0.832-1.1,1.57-2.483,2.213-4.15c0.529-1.434,1.172-2.667,1.93-3.7c0.982-1.466,1.93-2.183,2.836-2.15L76.918,28.95"/>
<path fill="#FFFFFF" d="M83.102,11.1c-1.814,2.467-3.084,4.55-3.801,6.25c-1.098,2.567-1.191,4.784-0.283,6.65l1.588,2.65l2.043,3.3
	c1.854,3.5,2.23,7.333,1.135,11.5c-1.061,3.8-3.084,7.117-6.072,9.95c-2.533,2.301-5.314,3.867-8.34,4.7
	c-1.398,0.366-1.984,1.534-1.758,3.5c0.037,0.634,0.207,1.45,0.51,2.45l0.625,2.2c0.453,1.833,0.699,4.884,0.736,9.149
	c-0.037,1.5,0.02,2.351,0.172,2.551c0.227,0.333,1.059,0.533,2.496,0.6c1.777,0.033,3.311,0.666,4.596,1.9
	c1.361,1.333,1.605,2.766,0.738,4.3c-0.871,1.466-2.725,2.333-5.561,2.6l-3.633,0.101L28.636,85.35
	c-1.249-0.1-2.307-0.566-3.178-1.399c-1.059-1-1.853-1.584-2.382-1.75c-3.178-0.934-6.374-2.684-9.588-5.25
	c-3.253-2.533-5.995-5.484-8.227-8.851c-2.421-3.533-3.934-6.983-4.539-10.35c-0.681-3.8-0.17-7.116,1.532-9.95
	c1.286-2.267,3.196-3.883,5.73-4.85c2.799-1.1,5.257-0.816,7.375,0.85c1.476,1.2,2.307,2.7,2.497,4.5
	c0.114,1.733-0.378,3.367-1.476,4.9l-1.588,2l-1.475,2.149c-0.681,1.467-0.946,3.184-0.794,5.15c0.114,2.033,0.644,3.683,1.588,4.95
	c2.875,3.699,5.031,5.434,6.468,5.199c0.87-0.166,1.362-0.866,1.475-2.1l0.057-3.1c0.605-3.801,1.532-7.033,2.779-9.7
	c0.606-1.267,1.57-2.733,2.894-4.4l3.291-4.2c0.794-1.133,0.983-2.1,0.567-2.899L29.6,43.5c-0.757-1.2-1.362-2.383-1.815-3.55
	c-0.341-0.833-0.567-1.833-0.681-3l-0.34-2.4c-0.189-0.767-0.606-1.35-1.249-1.75c-0.719-0.5-1.815-0.867-3.291-1.1l1.021-0.65
	c0.492-0.233,0.719-0.467,0.681-0.7c-0.038-0.2-0.511-0.533-1.418-1l-1.646-0.8c1.097-0.5,1.305-1.2,0.624-2.1l-2.212-2.2
	l-3.518-4.7l-3.971-4.95c-1.172-1.167-2.062-2.366-2.667-3.6c0.87-0.133,2.042,0.033,3.518,0.5l3.348,1.1l12.368,3.05l4.255,1.15
	c2.647,0.833,5.522,1.45,8.624,1.85l8.795,0.2c0.68-0.1,1.625-0.366,2.836-0.8l2.838-0.7l4.65-0.3
	c1.363-0.167,2.838-0.617,4.426-1.35c3.404-1.667,7.604-4.117,12.596-7.35l12.199-7.8c-0.455,0.267-0.891,0.967-1.305,2.1
	l-0.965,2.4L83.102,11.1 M47.074,32.45L45.09,30.4c-1.666-1.434-3.48-2.133-5.448-2.1c-1.891,0-3.272,0.633-4.142,1.9
	c-0.832,1.167-1.059,2.6-0.681,4.3c0.189,0.9,0.738,1.917,1.646,3.05c0.908,1.067,1.854,1.85,2.837,2.35
	c2.874,1.433,6.071,2.4,9.589,2.9c3.82,0.5,7.186,0.333,10.098-0.5l-2.326-1.9l-2.666-1.65L51.33,36.8
	c-1.098-0.833-1.91-1.566-2.439-2.2L47.074,32.45 M76.123,28.8c-0.906-0.033-1.854,0.684-2.836,2.15
	c-0.758,1.034-1.4,2.267-1.93,3.7c-0.643,1.667-1.381,3.05-2.213,4.15l-3.461,3.5c1.475,0.5,3.707,0.367,6.695-0.4
	c1.135-0.3,2.363-0.967,3.688-2c1.248-0.967,2.232-1.934,2.951-2.9c0.982-1.333,1.229-2.934,0.736-4.8
	c-0.453-1.7-1.4-2.783-2.836-3.25L76.123,28.8"/>
</svg>
