#Produced by polyHédronisme http://levskaya.github.com/polyhedronisme
group dakD
#vertices
v -0.022163947469708623 0.37645797850250234 0.8830521580706002
v -0.3334278165030083 0.5769752586073205 0.7446075148613293
v 0.000056700622991432153 -0.00007038223419729576 0.9999999959156901
v 0.294135826852218 0.5096986901761132 0.770185315944343
v 0.3372615856943099 0.16925090343698182 0.8830312215820924
v 0.6664653091735422 0.00014365067998270374 0.7447291805492263
v 0.6048714659549255 0.3764083495035623 0.6430215172869734
v 0.7445853168706217 0.5772057991627146 0.3330997832910718
v 0.4109322594092343 0.7119843708804955 0.4948678579647848
v 0.1270338115092444 0.9334686261254678 0.33308712812878355
v 0.02306896245908393 0.7118329769315755 0.6429635470063445
v -0.3149403200016762 -0.20752208475350725 0.8824618982514011
v -0.3328744018366608 -0.5772289572389924 0.7445836959802955
v -0.5883374332438595 -0.00018420766434775206 0.7702352118894708
v -0.31515699114071183 0.20737428966184734 0.8827013013150576
v -0.6283430799331089 0.3355338602589109 0.6429482697179677
v -0.8720846159367744 0.3562196149322139 0.3331017129215591
v -0.821987961004652 -0.000118073053013376 0.49487618443255693
v -0.8718523300283858 -0.3567280905629422 0.3330919069788173
v -0.6279438483053207 -0.335948943787896 0.6429915056817324
v 0.3374066282127595 -0.16906454634762028 0.8829434407325075
v 0.29433341929356854 -0.5095136417612944 0.7700318395783244
v -0.02193846316708059 -0.37669557614733656 0.8824464764536667
v 0.023670689519010545 -0.711905438865942 0.6429373986271041
v 0.12740358838200008 -0.9330584159426107 0.3330716776272102
v 0.411370074506674 -0.711890609178968 0.4949330593263963
v 0.7449217456247197 -0.5769746821938527 0.33303740017838757
v 0.6046952052107988 -0.3760817773974986 0.6424954978082287
v 0.823275887559327 0.2076716488642721 0.44800181564642766
v 0.9517845130012552 0.00012116711848346306 0.1817608736662449
v 0.8231335535004954 -0.20737256795838893 0.4476623925175474
v 0.8968350050588052 -0.3354849448010939 0.06039075105194907
v 0.8716518597155734 -0.3562262419195542 -0.33283849868099147
v 0.9426359635622504 0.0002787963577259753 -0.1791563076279325
v 0.8719416792438768 0.3566114451306616 -0.3331304306958667
v 0.8962971910377449 0.3356170456404131 0.060274779867785025
v -0.5913973434998365 0.6090786751840339 0.44789650684555926
v -0.47589857104259614 0.824190640597445 0.18176048236461617
v -0.23192847087968887 0.8163756092540082 0.4476217169459624
v -0.15783001951029818 0.9443561797316825 0.06032470571604073
v -0.12722903205315458 0.9329452897701205 -0.3328298821573489
v -0.4714737988673223 0.8162012465684545 -0.17915821028529658
v -0.7447337337578022 0.5768071843959657 -0.33313795006980856
v -0.7387228114810873 0.608401831990869 0.06027643184289555
v -0.23169811246434194 -0.8166835444489201 0.44788881276971787
v -0.4757510180651824 -0.8242621239206843 0.18176822834579823
v -0.5909656163731268 -0.609045620234824 0.4476255485597486
v -0.7388427626446018 -0.6088724231876591 0.06032582111082693
v -0.7442674874281123 -0.5766720588565726 -0.33283591311293703
v -0.4710365347349397 -0.8164155607985537 -0.17915791035181763
v -0.12709462232903704 -0.93334560353056 -0.33311682149345917
v -0.15741022009504763 -0.9440828499500366 0.060349720283746175
v 0.4712568809052964 0.8168000422300941 0.17948633427583432
v 0.4756569735084947 0.8241874192769844 -0.1816500511516041
v 0.7388990618139882 0.6091430847719057 -0.06035706895195524
v 0.5908914683356457 0.6089193057919318 -0.4475630646607288
v 0.33271608039489114 0.5767133563713108 -0.7442148789519129
v 0.23168510559084216 0.8159873483573215 -0.447390868886962
v 0.15735347097317637 0.9441133460658964 -0.060241056695331946
v 0.7392628255510834 -0.6090439933627902 -0.060366494675296395
v 0.4757366015541735 -0.8241239648038239 -0.18172969777305437
v 0.47115744663020515 -0.8162083610166123 0.1790175877394936
v 0.15775173427238798 -0.9441124787551967 -0.06020493665749431
v 0.23181728740279625 -0.8159905925723238 -0.44761915349782383
v 0.33303235165912487 -0.5765090029016776 -0.7445932043975039
v 0.5907992036312357 -0.6083308658514659 -0.4474089760786924
v -0.9429226544064018 -0.0002860015735525895 0.17948914331712004
v -0.951526430109643 -0.00017590342731370687 -0.18165187035067346
v -0.8969072422718813 0.33532092673112085 -0.0603577428730534
v -0.8227151752655013 0.20724609009611578 -0.4475670885048264
v -0.6657249610998979 -0.00023273380715086836 -0.7442033854982176
v -0.8224366784070242 -0.2073621179412537 -0.4473941251852133
v -0.8962259486280487 -0.33579514927074344 -0.060241464867685876
v 0.6282388198944572 0.33566021414513764 -0.6429852563298757
v 0.58794709924961 -0.00009789750774754198 -0.7697850445843915
v 0.8216457494269132 -0.00010637233084848721 -0.4947964833337301
v 0.6279022592551107 -0.33536579114146875 -0.6423681195149672
v 0.314495227471448 -0.20715990842234278 -0.8819002763594604
v -0.00010047746359039464 0.00022349812442411644 -0.9983707474064455
v 0.3144100994366885 0.2074377528201202 -0.881563522585167
v -0.6047391853048075 0.37622352443115165 -0.6429983736609801
v -0.29378563922068257 0.5091937628225169 -0.7697570425845683
v -0.41064514608472763 0.7116106024191708 -0.49480438013991235
v -0.023496326651628353 0.7113832430965247 -0.6422601742655862
v 0.02219223074087276 0.3759317020592417 -0.8815400634379539
v -0.33686321315239076 0.16860287975727664 -0.8813478951565101
v -0.0233705506097805 -0.7118396608565424 -0.6430084923123897
v -0.29406151479539433 -0.5089993227371057 -0.7696427764715179
v -0.4108717720074973 -0.7114409725845111 -0.4948023599441892
v -0.6042569207692989 -0.37605254084418005 -0.6422683004209547
v -0.3366485489998718 -0.16878643401976853 -0.8812427015232139
v 0.022273965548532046 -0.37564278577012 -0.8818489751159078
#normal vector defs 
vn 0.3623095834704054 0.0008314484049313158 -0.9320574415877227
vn -0.18221037618947533 -0.313427065450264 -0.931967195480681
vn -0.18167994685087688 0.313772495030822 -0.9319545151317179
vn 0.1777230302745532 -0.3085321674718015 -0.9344637104485025
vn 0.17811758824322424 0.3090381481661886 -0.934221359066699
vn -0.35672550017507726 -0.0005182411531321208 -0.9342091034404172
vn -0.029409696795678314 -0.576241532848376 -0.8167501243066573
vn 0.5153921964947075 -0.26356692551722977 -0.8154160653100696
vn 0.5133342348183888 0.26335146465802634 -0.8167826941273252
vn -0.4845052047816582 0.31276360055195196 -0.8169661172345289
vn -0.02902261180157493 0.577842899405349 -0.8156318235644284
vn -0.485521158472037 -0.31388389198332983 -0.8159326608424058
vn -0.5208411812805952 0.5787088914087398 -0.627551179495905
vn 0.7616266455107691 0.16176517760303274 -0.6275005021217691
vn -0.2407978092157496 -0.7403605737122606 -0.6276006978719414
vn 0.7611641136964598 -0.16362780768587964 -0.6275787859485021
vn -0.23863363517449915 0.7409929404810147 -0.627681010004846
vn -0.5223060056799356 -0.5771741710098648 -0.6277470929839072
vn 0.11153069476709968 -0.8091211720344497 -0.57696085923602
vn -0.7562475934044687 0.3077637544915988 -0.5773829308969778
vn 0.6446785285647971 0.5010240222354431 -0.5773772804246339
vn 0.6456904971738268 -0.49998217764725633 -0.5771495507184631
vn -0.755279763511395 -0.30940752243323444 -0.5777711172184874
vn 0.10966305146967029 0.8088042243267569 -0.577762703757826
vn 0.4466691755560333 -0.7716999591174216 -0.4527315106177869
vn 0.4450971248839382 0.7724982953571363 -0.4529182410660565
vn -0.8915395759779103 -0.0007878120534168697 -0.4529421197209377
vn -0.4663699691917619 0.8089443634569139 -0.35792187508919276
vn 0.9337513305783134 -0.0005262183451055386 -0.3579220246610745
vn -0.46733973545434865 -0.8083830821079053 -0.3579250818637647
vn -0.9277580856779852 0.2630003275839979 -0.26475604270692277
vn 0.6916406802303189 0.6719619571849773 -0.2647646078060216
vn 0.23578909868907452 -0.9352007778814219 -0.264202585130004
vn 0.6916142154004179 -0.6712911167487408 -0.266529573650454
vn -0.9275389008053909 -0.2641249801381041 -0.26440420261367564
vn 0.23503479274192945 0.9353296573063234 -0.26441837750805813
vn -0.6349825924280291 0.7715337128788005 -0.03915146491298011
vn 0.985653225019553 0.16417374565879955 -0.0391752631760668
vn -0.3508183105267564 -0.9356169150301753 -0.039338293157816756
vn -0.3513568033208421 0.9353702350568599 -0.040384652156896364
vn -0.634379962120251 -0.7719650241819673 -0.04039882547851571
vn 0.9857481872496016 -0.163300019556451 -0.04041800275851277
vn -0.8654019803846528 0.5010780168175106 0.0004831237435357977
vn 0.8666506209927268 0.4989153001975424 0.0004736683622964136
vn 0.00006184982177555224 -0.999999915074413 0.00040746259496112175
vn 0.8666201542836691 -0.4989682132582815 -0.0004799449836884708
vn -0.8662280178524423 -0.49964802197927294 -0.0009355317358276862
vn 0.0004099525197952313 0.9999994718940556 -0.0009424173923854308
vn 0.6331033613518954 -0.773028963870555 0.0400793570575603
vn 0.3513586980266005 -0.9353942453938981 0.039807926409597905
vn 0.6342032794033309 0.772174010700676 0.03915989775896716
vn -0.9858210915985685 0.16316308883810368 0.0391737386550759
vn 0.35018879761946253 0.9358882520174575 0.03848357776432715
vn -0.9855964692226501 -0.1646766111599715 0.038486537811465146
vn -0.23576165677101976 0.935278401750969 0.2639521782723847
vn -0.6921087139500897 -0.6717975224996501 0.26395760424296383
vn 0.9279097563331711 -0.2634758640995883 0.26374979267989973
vn -0.693028164031017 0.6715255924849018 0.26223146740541914
vn -0.2347100218692936 -0.9359020300564959 0.26267583781201814
vn 0.9280940043272764 0.2644997401158073 0.2620713769384827
vn 0.4668810319018746 -0.8096278895908079 0.35570322242984437
vn 0.46657244354108907 0.8087766224233292 0.35803705108495293
vn -0.9337100678575143 -0.0003091369960848233 0.3580299060355623
vn -0.4465435153515123 -0.7720627965579867 0.4522365830719299
vn -0.4453181147488358 0.7728153349441189 0.4521595235663537
vn 0.8919832204074633 -0.0006755953134126904 0.4520680016131459
vn 0.7548783669813504 -0.30977071595618494 0.5781009899659074
vn -0.11049946302057435 0.8090646316048529 0.5772385040503348
vn -0.6453710967954676 -0.5003130516960821 0.5772200600495178
vn -0.1091394161173504 -0.8090565630225393 0.5775084983614699
vn -0.6458728731084271 0.49914330917810545 0.5776713500645465
vn 0.7551862124886067 0.30982799234856034 0.5776680704560134
vn 0.522591593146914 -0.5767641895866862 0.6278862129260234
vn 0.23940690333689835 -0.7412731565006947 0.6270553740190202
vn 0.23918665212875875 0.7412314689646559 0.6271886915912425
vn -0.7617030762146123 0.16277927036611614 0.627145384120996
vn 0.5217781279456806 0.578393475188204 0.6270634521778586
vn -0.7615382433533171 -0.1634056124196319 0.6271826765306177
vn 0.029376882220246772 -0.5784561188199188 0.8151843456487704
vn 0.4876979084653243 -0.3156890154558114 0.8139356212865294
vn -0.5152587702740522 -0.264350181432776 0.8152468222766217
vn -0.5158505945327324 0.264019458650758 0.8149796866020572
vn 0.028898035355147674 0.5792738853925821 0.8146205676600576
vn 0.48682847543900865 0.3150221449366086 0.8147141116374926
vn -0.17893901750966087 -0.3100004852506774 0.9337454295240336
vn -0.17969074622906772 0.3094355998174779 0.9337884371126247
vn 0.35770899945412116 -0.00008893962423659424 0.9338331027540598
vn -0.36374499132516314 -0.0007274505227166566 0.9314982834667995
vn 0.18117111233026792 -0.31578040230399246 0.9313752012898678
vn 0.18171368997472764 0.31511007824158577 0.9314965235932715
#face defs 
f 78//1 79//1 80//1 75//1 
f 92//2 88//2 91//2 79//2 
f 86//3 82//3 85//3 79//3 
f 92//4 79//4 78//4 65//4 
f 80//5 79//5 85//5 57//5 
f 86//6 79//6 91//6 71//6 
f 87//7 88//7 92//7 65//7 
f 78//8 75//8 77//8 65//8 
f 74//9 75//9 80//9 57//9 
f 81//10 82//10 86//10 71//10 
f 85//11 82//11 84//11 57//11 
f 91//12 88//12 90//12 71//12 
f 83//13 82//13 81//13 43//13 
f 76//14 75//14 74//14 35//14 
f 89//15 88//15 87//15 51//15 
f 77//16 75//16 76//16 33//16 
f 84//17 82//17 83//17 41//17 
f 90//18 88//18 89//18 49//18 
f 87//19 65//19 64//19 51//19 
f 81//20 71//20 70//20 43//20 
f 74//21 57//21 56//21 35//21 
f 66//22 65//22 77//22 33//22 
f 72//23 71//23 90//23 49//23 
f 58//24 57//24 84//24 41//24 
f 64//25 65//25 66//25 61//25 
f 56//26 57//26 58//26 54//26 
f 70//27 71//27 72//27 68//27 
f 83//28 43//28 42//28 41//28 
f 76//29 35//29 34//29 33//29 
f 89//30 51//30 50//30 49//30 
f 70//31 68//31 69//31 43//31 
f 56//32 54//32 55//32 35//32 
f 64//33 61//33 63//33 51//33 
f 60//34 61//34 66//34 33//34 
f 73//35 68//35 72//35 49//35 
f 59//36 54//36 58//36 41//36 
f 42//37 43//37 44//37 38//37 
f 34//38 35//38 36//38 30//38 
f 50//39 51//39 52//39 46//39 
f 40//40 41//40 42//40 38//40 
f 48//41 49//41 50//41 46//41 
f 32//42 33//42 34//42 30//42 
f 44//43 43//43 69//43 17//43 
f 36//44 35//44 55//44 8//44 
f 52//45 51//45 63//45 25//45 
f 60//46 33//46 32//46 27//46 
f 73//47 49//47 48//47 19//47 
f 59//48 41//48 40//48 10//48 
f 62//49 61//49 60//49 27//49 
f 63//50 61//50 62//50 25//50 
f 55//51 54//51 53//51 8//51 
f 69//52 68//52 67//52 17//52 
f 53//53 54//53 59//53 10//53 
f 67//54 68//54 73//54 19//54 
f 40//55 38//55 39//55 10//55 
f 48//56 46//56 47//56 19//56 
f 32//57 30//57 31//57 27//57 
f 37//58 38//58 44//58 17//58 
f 45//59 46//59 52//59 25//59 
f 29//60 30//60 36//60 8//60 
f 62//61 27//61 26//61 25//61 
f 53//62 10//62 9//62 8//62 
f 67//63 19//63 18//63 17//63 
f 47//64 46//64 45//64 13//64 
f 39//65 38//65 37//65 2//65 
f 31//66 30//66 29//66 6//66 
f 28//67 27//67 31//67 6//67 
f 11//68 10//68 39//68 2//68 
f 20//69 19//69 47//69 13//69 
f 45//70 25//70 24//70 13//70 
f 37//71 17//71 16//71 2//71 
f 29//72 8//72 7//72 6//72 
f 26//73 27//73 28//73 22//73 
f 24//74 25//74 26//74 22//74 
f 9//75 10//75 11//75 4//75 
f 16//76 17//76 18//76 14//76 
f 7//77 8//77 9//77 4//77 
f 18//78 19//78 20//78 14//78 
f 24//79 22//79 23//79 13//79 
f 21//80 22//80 28//80 6//80 
f 14//81 20//81 13//81 12//81 
f 16//82 14//82 15//82 2//82 
f 4//83 11//83 2//83 1//83 
f 5//84 6//84 7//84 4//84 
f 12//85 13//85 23//85 3//85 
f 2//86 15//86 3//86 1//86 
f 21//87 6//87 5//87 3//87 
f 15//88 14//88 12//88 3//88 
f 23//89 22//89 21//89 3//89 
f 3//90 5//90 4//90 1//90 
